<?xml version="1.0" encoding="UTF-8" standalone="no"?>
<!DOCTYPE svg PUBLIC "-//W3C//DTD SVG 1.1//EN" "http://www.w3.org/Graphics/SVG/1.1/DTD/svg11.dtd">
<svg width="100%" height="100%" viewBox="0 0 400 400" version="1.1" xmlns="http://www.w3.org/2000/svg" xmlns:xlink="http://www.w3.org/1999/xlink" xml:space="preserve" xmlns:serif="http://www.serif.com/" style="fill-rule:evenodd;clip-rule:evenodd;stroke-linejoin:round;stroke-miterlimit:2;">
    <g id="svgg">
        <path id="path0" d="M59.57,242.933C54.483,244.228 51.438,249.346 51.635,256.273C51.674,257.657 51.325,262.305 50.858,266.602C50.039,274.149 49.39,277.629 44.007,303.32C41.513,315.225 41.137,317.68 40.807,324.219C40.453,331.223 39.989,334.076 38.667,337.379C36,344.04 39.009,349.609 45.275,349.609C52.543,349.609 55.478,342.93 56.43,324.219C56.68,319.311 57.287,316.019 62.919,289.063C63.974,284.014 65.123,277.861 65.471,275.391C65.82,272.92 66.217,270.586 66.354,270.205C66.785,269.001 71.235,274.829 74.281,280.587C75.771,283.402 77.136,285.89 77.315,286.115C78.123,287.131 82.188,295.254 84.517,300.504C88.196,308.801 89.536,310.167 93.971,310.148C100.604,310.118 103.282,304.898 101.583,295.313C100.542,289.444 100.132,278.57 100.861,276.184L101.395,274.438L103.252,278.034C104.656,280.752 105.341,282.723 106.057,286.106C107.067,290.873 108.508,294.974 110.903,299.893C114.252,306.772 116.594,312.747 117.159,315.853C118.044,320.716 121.319,332.526 122.838,336.328C125.163,342.15 126.509,343.421 130.612,343.667C137.599,344.086 140.963,337.313 137.375,330.051C136.584,328.451 135.935,326.879 135.933,326.559C135.931,326.239 135.405,324.239 134.765,322.116C134.124,319.993 133.168,316.213 132.639,313.717C131.469,308.199 130.155,304.433 127.035,297.656C123.126,289.165 122.146,286.66 121.468,283.426C120.227,277.506 119.618,275.941 115.076,267.007C112.669,262.272 109.946,256.603 109.024,254.408C105.419,245.828 102.26,243.515 96.335,245.119C91.642,246.39 89.612,249.158 89.033,255.078C88.231,263.265 87.058,269.531 86.326,269.531C86.205,269.531 85.776,268.96 85.373,268.262C84.478,266.711 79.751,260.822 75.759,256.285C74.136,254.44 71.889,251.699 70.766,250.195C69.644,248.691 68.192,246.799 67.539,245.99C65.585,243.568 62.19,242.266 59.57,242.933M252.221,283.21C250.439,283.745 248.45,285.5 247.567,287.317C246.696,289.11 246.989,304.332 247.984,308.984C248.191,309.951 248.563,311.797 248.812,313.086C249.061,314.375 249.601,317.1 250.012,319.141C250.424,321.182 250.867,325.4 250.996,328.516C251.125,331.631 251.394,335.135 251.592,336.302C251.791,337.47 251.953,339.128 251.953,339.987C251.953,346.756 260.777,350.021 265.36,344.947C267.765,342.285 267.951,339.948 266.811,326.758C266.267,320.46 266.524,309.411 267.241,308.263C267.497,307.852 268.952,306.855 270.474,306.046C271.997,305.237 274.209,304.007 275.391,303.313C276.572,302.619 278.448,301.756 279.56,301.395C287.576,298.791 286.779,287.694 278.464,286.134C276.516,285.769 272.166,287.309 266.938,290.214C262.082,292.914 262.158,292.89 262.397,291.639C263.357,286.619 257.374,281.663 252.221,283.21M347.562,284.54C345.403,285.311 344.248,286.176 343.207,287.803C342.134,289.48 340.867,290.679 337.999,292.731C325.728,301.513 327.388,315.223 341.295,319.945C345.33,321.316 352.072,325.786 353.167,327.819C354.149,329.639 347.334,330.526 341.797,329.299C337.915,328.438 335.866,328.596 333.725,329.922C326.57,334.354 330.779,347.111 339.006,345.928C340.004,345.784 343.281,345.621 346.289,345.565C375.142,345.027 377.506,319.031 349.846,306.453L347.089,305.199L348.838,304.106C351.213,302.621 357.354,296.352 358.039,294.713C360.699,288.346 354.302,282.135 347.562,284.54M217.773,284.831C204.174,287.565 196.274,298.522 195.445,315.8L195.198,320.951L193.806,320.241C193.04,319.851 192.093,319.531 191.702,319.531C191.311,319.531 189.722,318.577 188.171,317.41C186.62,316.244 184.209,314.73 182.813,314.046C179.613,312.479 178.311,311.266 177.108,308.733C175.543,305.437 173.032,303.126 171.012,303.125C170.662,303.124 170.5,302.438 170.483,300.878C170.325,286.831 148.959,286.957 142.527,301.043C140.899,304.608 140.194,313.75 141.376,315.959C141.607,316.391 141.797,317.162 141.797,317.671C141.797,321.514 146.532,331.617 150,335.173C154.846,340.143 157.458,341.176 165.234,341.197C173.161,341.218 175.819,339.392 177.91,332.488C178.797,329.558 178.359,329.531 182.734,332.79C189.962,338.176 195.494,338.033 198.139,332.39C199.2,330.127 199.068,330.104 201.385,332.959C205.345,337.839 212.436,341.956 218.555,342.929C222.42,343.544 229.386,343.745 231.137,343.292C231.951,343.082 233.32,342.775 234.18,342.61C235.039,342.445 236.533,341.946 237.5,341.502C238.467,341.057 240.015,340.492 240.94,340.246C247.569,338.484 248.425,328.544 242.227,325.306C238.867,323.551 235.126,323.906 232.588,326.221C228.791,329.685 218.556,328.215 213.875,323.534C210.017,319.676 210.084,310.824 214.018,304.624C215.992,301.514 221.092,299.217 222.624,300.749C226.614,304.739 234.013,302.813 235.519,297.391C238.091,288.129 229.968,282.379 217.773,284.831M294.077,290.593C290.719,291.906 288.281,294.604 288.281,297.007C288.281,297.374 287.498,299.032 286.542,300.693C282.274,308.097 280.188,324.041 282.734,329.797C289.273,344.579 315.782,343.636 322.997,328.365C325.599,322.858 325.644,311.731 323.079,308.184C322.682,307.636 321.898,306.279 321.335,305.168C316.42,295.469 301.715,287.606 294.077,290.593M303.512,308.246C309.704,312.731 311.519,321.353 306.755,323.659C305.148,324.437 300.832,324.852 298.635,324.44L297.266,324.183L297.278,321.564C297.303,316.108 298.304,311.36 300.057,308.389C301.04,306.724 301.392,306.709 303.512,308.246M160.254,309.976C161.612,310.224 161.719,310.341 161.719,311.593C161.719,312.335 162.334,314.273 163.086,315.901C164.489,318.938 164.666,320.275 164.131,323.823C163.368,328.888 158.008,321.582 157.163,314.325C157.067,313.503 156.823,312.393 156.619,311.858C156.416,311.324 156.25,310.289 156.25,309.558L156.25,308.229L157.52,308.969C158.218,309.376 159.448,309.829 160.254,309.976" style="fill:rgb(4,4,252);"/>
        <path id="path1" d="M271.289,98.67C269.569,99.17 267.996,99.794 263.477,101.77C262.832,102.052 260.811,102.76 258.984,103.344C257.158,103.927 253.73,105.274 251.367,106.335C249.004,107.397 244.609,109.109 241.602,110.139C226.969,115.153 219.938,123.703 219.927,136.498C219.919,144.832 224.866,151.003 235.008,155.309C236.481,155.934 239.973,157.561 242.769,158.926C247.306,161.14 256.537,165.143 261.328,166.975C269.942,170.268 290.123,191.781 291.854,199.516C292.842,203.931 288.262,207.683 278.32,210.605L275.195,211.523L251.758,211.523C230.681,211.523 228.202,211.589 227.148,212.17C220.833,215.654 222.078,225.534 229.054,227.291C231.64,227.942 272.568,228.348 276.172,227.758C289.304,225.608 302.416,218.411 306.086,211.339C308.613,206.469 308.576,206.596 308.582,202.734C308.6,191.888 302.886,182.053 287.927,167.179C278.633,157.938 273.843,154.321 267.773,151.962C266.484,151.461 264.727,150.745 263.867,150.371C263.008,149.997 261.162,149.217 259.766,148.639C258.369,148.061 254.15,146.135 250.391,144.359C246.631,142.582 242.764,140.831 241.797,140.467C232.247,136.869 235.209,129.607 248.014,125.221C250.868,124.243 254.805,122.723 256.762,121.842C258.718,120.96 263.051,119.271 266.39,118.087C269.729,116.904 273.428,115.588 274.609,115.165C277.071,114.281 284.603,114.295 286.247,115.185C286.739,115.452 288.004,115.677 289.058,115.685C298.028,115.754 300.826,103.868 292.814,99.725C290.025,98.282 275.129,97.552 271.289,98.67M165.409,100.552C162.18,102.127 154.423,102.816 151.416,101.794C149.181,101.036 131.288,100.875 129.42,101.597C128.815,101.83 127.441,102.102 126.367,102.199C125.293,102.297 123.623,102.585 122.656,102.838C120.307,103.452 106.711,103.407 100.195,102.762C94.796,102.228 68.082,101.751 65.395,102.141C62.126,102.615 54.237,108.872 52.735,112.181C50.28,117.592 54.458,124.219 60.325,124.219C61.673,124.219 62.498,124.509 63.84,125.455C68.931,129.043 75.58,126.116 76.731,119.779L77.005,118.269L86.061,118.507C96.85,118.791 99.49,118.962 101.452,119.507C102.265,119.733 105.232,119.918 108.046,119.92L113.163,119.922L113.841,121.582C115.859,126.521 118.244,130.77 121.35,134.961C137.407,156.626 149.868,189.615 146.116,200.522C144,206.673 143.26,206.792 114.301,205.641L108.876,205.425L106.879,203.331C103.683,199.978 99.205,199.526 91.846,201.811C80.925,205.203 78.027,214.454 86.326,219.434L88.442,220.703L95.688,220.703C99.9,220.703 103.506,220.884 104.299,221.135C108.127,222.347 141.503,222.979 145.703,221.919C152.78,220.133 157.702,215.398 161.376,206.844L163.385,202.164L163.172,195.906C162.824,185.678 160.115,174.759 154.308,160.183C150.444,150.486 141.151,133.955 134.986,125.815C132.552,122.6 130.469,119.268 130.469,118.589C130.469,117.457 144.65,117.161 149.097,118.2C151.174,118.685 153,118.773 157.422,118.6C170.478,118.089 175.269,116.592 177.304,112.387C180.804,105.157 172.633,97.027 165.409,100.552" style="fill:rgb(252,4,4);"/>
        <path d="M318.153,92.869C320.477,91.365 323.617,91.631 325.653,93.667C327.994,96.008 327.994,99.81 325.653,102.152C324.74,103.064 322.959,104.187 320.214,104.729C317.059,105.352 311.742,105.471 305.651,104.494C293.656,102.572 278.791,96.373 271.611,83.141C266.841,74.351 265.219,62.324 270.64,46.061C279.502,19.475 308.22,19.486 310.208,18.989C313.421,18.186 316.681,20.142 317.484,23.355C318.287,26.567 316.331,29.828 313.119,30.631C312.418,30.806 307.874,30.797 302.174,32.222C295.14,33.981 285.878,38.294 282.024,49.855C277.996,61.941 278.614,70.886 282.158,77.418C287.449,87.168 298.713,91.229 307.551,92.646C311.849,93.335 317.184,92.948 318.153,92.869Z" style="fill:rgb(79,255,0);"/>
        <path d="M353.231,101.975C354.626,102.186 355.894,101.654 358.306,100.726C362.341,99.173 368.234,96.688 377.992,93.435C381.134,92.388 384.534,94.089 385.582,97.23C386.629,100.372 384.928,103.773 381.787,104.82C369.747,108.833 363.669,111.666 359.68,112.993C353.705,114.98 350.859,114.715 345.34,111.705L343.865,110.585L342.911,109.328C342.401,108.458 341.446,104.992 340.836,99.735C339.39,87.274 337.883,62.121 338.213,45.939C338.379,37.834 339.28,31.697 340.41,29.437C341.891,26.475 345.498,25.272 348.46,26.753C351.422,28.234 352.624,31.841 351.143,34.803C350.907,35.275 350.862,36.143 350.725,37.267C350.375,40.159 350.212,44.148 350.175,48.745C350.031,66.418 351.786,92.766 353.231,101.975Z" style="fill:rgb(79,255,0);"/>
        <path d="M362.377,66.948C362.215,66.892 361.413,66.616 360.906,66.528C359.944,66.359 358.891,66.294 357.828,66.281C353.331,66.226 348.654,67.129 348.45,67.18C345.237,67.984 341.977,66.027 341.174,62.815C340.371,59.602 342.327,56.342 345.54,55.539C345.859,55.459 354.336,53.769 361.076,54.449C365.159,54.86 368.65,56.255 370.731,58.335C373.072,60.677 373.072,64.479 370.731,66.821C368.432,69.119 364.727,69.161 362.377,66.948Z" style="fill:rgb(79,255,0);"/>
        <path d="M347.232,35.504C344.019,36.307 340.759,34.351 339.956,31.138C339.152,27.926 341.109,24.666 344.321,23.862C346.778,23.248 346.589,23.87 375.949,22.472C379.257,22.314 382.07,24.872 382.228,28.179C382.385,31.487 379.828,34.301 376.52,34.458C349.341,35.752 349.506,34.935 347.232,35.504Z" style="fill:rgb(79,255,0);"/>
    </g>
</svg>
